<?xml version="1.0" encoding="UTF-8" standalone="no"?>
<!-- Created with Inkscape (http://www.inkscape.org/) -->
<svg xmlns:dc="http://purl.org/dc/elements/1.1/" xmlns:cc="http://creativecommons.org/ns#" xmlns:rdf="http://www.w3.org/1999/02/22-rdf-syntax-ns#" xmlns:svg="http://www.w3.org/2000/svg" xmlns="http://www.w3.org/2000/svg" version="1.1" width="200" height="121.57834" viewBox="0 0 200 121.57833" id="圖層_1" xml:space="preserve"><metadata id="metadata3079"><rdf:RDF><cc:Work rdf:about=""><dc:format>image/svg+xml</dc:format><dc:type rdf:resource="http://purl.org/dc/dcmitype/StillImage"/><dc:title/></cc:Work></rdf:RDF></metadata><defs id="defs3077"/>
<g transform="matrix(0.46543666,0,0,0.46543666,-100.29788,-29.114929)" id="XMLID_2_">
	<g id="g3035">
		<path d="m 597.214,100.593 c -1.742,-0.277 -4.604,0.562 -5.62,-0.432 1.737,0.28 4.595,-0.562 5.62,0.432 z" id="path3037" style="fill:#bfb7bd"/>
		<path d="m 580.784,100.161 c -0.882,0.994 -3.588,0.16 -5.188,0.432 0.891,-0.986 3.597,-0.156 5.188,-0.432 z" id="path3039" style="fill:#bfb7bd"/>
		<path d="m 536.688,295.563 c 1.729,0 3.459,0 5.188,0 -35.544,14.601 -74.932,25.362 -122.772,27.666 -5.188,0 -10.376,0 -15.564,0 -42.116,-2.313 -71.391,-13.484 -86.458,-41.069 -4.92,-9.006 -6.468,-19.871 -10.809,-31.558 -7.298,-19.659 -21.082,-36.335 -35.881,-49.284 -13.442,-11.756 -28.094,-20.801 -47.55,-26.802 -2.369,-0.731 -5.508,-0.839 -7.35,-3.027 1.513,-0.211 2.815,-0.644 4.756,-0.432 1.738,-0.277 4.596,0.562 5.616,-0.432 3.459,0 6.918,0 10.377,0 0.882,0.994 3.593,0.16 5.188,0.432 28.553,1.825 49.185,9.789 66.142,22.482 17.407,13.031 25.955,32.829 38.043,50.577 24.484,35.959 68.386,48.359 126.23,51.014 0.602,0.985 3.01,0.16 4.323,0.432 1.868,0 3.749,0 5.621,0 1.881,0.999 5.616,0.147 8.215,0.432 11.816,0 23.628,0 35.444,0 h 0.004 c 3.611,-0.284 8.354,0.572 11.237,-0.431 z" id="path3041" style="fill:#2e3192"/>
		<path d="m 494.759,179.273 c 27.39,0.999 48.691,8.085 69.601,15.565 -68.359,4.125 -138.056,6.913 -185.026,32.422 2.425,-3.731 6.779,-5.672 10.376,-8.214 25.543,-18.055 51.697,-38.19 93.808,-39.772 3.744,-0.001 7.488,-0.001 11.241,-0.001 z" id="path3043" style="fill:#c1282e"/>
		<path d="m 536.688,295.563 c -2.884,1.003 -7.627,0.147 -11.237,0.432 2.889,-1.007 7.636,-0.146 11.237,-0.432 z" id="path3045" style="fill:#bfb7bd"/>
		<path d="m 494.759,179.273 c -3.753,0 -7.497,0 -11.241,0 2.745,-0.718 8.496,-0.718 11.241,0 z" id="path3047" style="fill:#bfb7bd"/>
		<path d="m 490.003,295.996 c -2.599,-0.285 -6.334,0.566 -8.215,-0.432 2.599,0.281 6.334,-0.571 8.215,0.432 z" id="path3049" style="fill:#bfb7bd"/>
		<path d="m 476.167,295.563 c -1.313,-0.272 -3.722,0.553 -4.323,-0.432 1.314,0.268 3.722,-0.553 4.323,0.432 z" id="path3051" style="fill:#bfb7bd"/>
		<path d="m 403.541,323.229 c 5.188,0 10.376,0 15.564,0 -4.185,0.718 -11.379,0.718 -15.564,0 z" id="path3053" style="fill:#bfb7bd"/>
		<path d="m 343.17,212.936 c -0.047,-0.1 -0.099,-0.225 -0.151,-0.376 -9.897,-14.691 -18.687,-33.845 -17.723,-57.927 0.925,-23.183 11.466,-40.17 22.479,-52.743 2.486,-2.123 4.791,-4.428 6.917,-6.914 15.582,-13.957 34.904,-24.182 56.198,-32.422 0.618,2.015 -5.742,5.837 -7.35,8.643 -2.339,1.98 -4.501,4.142 -6.481,6.485 -29.984,31.839 -55.99,67.651 -53.608,131.851 0.9,0.359 0.55,5.163 -0.281,3.403 z" id="path3055" style="fill:#006837"/>
		<path d="M 355.125,238.929 C 385.545,149.743 460.33,104.942 575.591,100.593 h 0.005 c 1.6,-0.272 4.306,0.562 5.188,-0.432 3.602,0 7.208,0 10.81,0 1.016,0.994 3.878,0.155 5.62,0.432 17.061,0.086 32.405,1.89 47.982,3.459 -119.718,21.643 -224.876,60.153 -290.071,134.877 z" id="path3057" style="fill:#fbb03b"/>
		<path d="m 403.541,71.197 c -1.98,2.344 -4.142,4.505 -6.481,6.485 1.98,-2.343 4.141,-4.505 6.481,-6.485 z" id="path3059" style="fill:#bfb7bd"/>
		<path d="m 354.693,94.977 c -2.127,2.486 -4.432,4.791 -6.917,6.914 2.122,-2.487 4.431,-4.791 6.917,-6.914 z" id="path3061" style="fill:#bfb7bd"/>
		<path d="m 327.887,196.135 c -1.699,-1.038 -3.152,-2.322 -4.751,-3.459 -1.769,-1.405 -3.351,-2.992 -4.756,-4.756 -17.407,-16.071 -31.77,-66.565 -3.026,-80.842 0.155,4.626 -1.349,11.332 -0.865,17.727 -0.718,1.31 -0.718,5.604 0,6.914 0.163,25.772 6.485,45.392 13.398,64.416 z" id="path3063" style="fill:#2e3192"/>
		<path d="m 314.488,124.805 c 0,2.305 0,4.609 0,6.914 -0.717,-1.311 -0.717,-5.604 0,-6.914 z" id="path3065" style="fill:#bfb7bd"/>
		<path d="m 241.429,171.058 c -1.595,-0.272 -4.306,0.562 -5.188,-0.432 1.599,0.276 4.306,-0.558 5.188,0.432 z" id="path3067" style="fill:#bfb7bd"/>
		<path d="m 220.248,171.058 c 1.021,-0.995 3.878,-0.151 5.616,-0.432 -1.02,0.994 -3.878,0.155 -5.616,0.432 z" id="path3069" style="fill:#bfb7bd"/>
	</g>
	<g id="g3071">
	</g>
</g>
<g transform="translate(-209.49199,-192.18916)" id="g3073">
</g>
</svg>